<svg width="1200" height="800" viewBox="0 0 1200 800" fill="none" xmlns="http://www.w3.org/2000/svg">
  <rect width="1200" height="800" rx="36" fill="#0F1117"/>
  <rect x="48" y="48" width="1104" height="704" rx="28" fill="#161B22" stroke="#253145"/>
  <circle cx="220" cy="180" r="64" fill="#34D399" fill-opacity="0.18"/>
  <circle cx="600" cy="180" r="64" fill="#58A6FF" fill-opacity="0.18"/>
  <circle cx="980" cy="180" r="64" fill="#8B5CF6" fill-opacity="0.18"/>
  <rect x="170" y="310" width="120" height="12" rx="6" fill="#E6EDF3" fill-opacity="0.2"/>
  <rect x="550" y="310" width="120" height="12" rx="6" fill="#E6EDF3" fill-opacity="0.2"/>
  <rect x="930" y="310" width="120" height="12" rx="6" fill="#E6EDF3" fill-opacity="0.2"/>
  <path d="M284 180H536" stroke="#58A6FF" stroke-width="6" stroke-linecap="round"/>
  <path d="M664 180H916" stroke="#8B5CF6" stroke-width="6" stroke-linecap="round"/>
  <rect x="120" y="420" width="960" height="220" rx="28" fill="#131A26"/>
  <rect x="170" y="480" width="860" height="20" rx="10" fill="#E6EDF3" fill-opacity="0.18"/>
  <rect x="170" y="530" width="760" height="20" rx="10" fill="#E6EDF3" fill-opacity="0.12"/>
  <rect x="170" y="580" width="810" height="20" rx="10" fill="#E6EDF3" fill-opacity="0.1"/>
</svg>
